# xmcd CD database file
#
# Track frame offsets:
#	150
#	35914
#	75983
#	100565
#	144965
#	160091
#	183673
#	209013
#	245099
#	260262
#	295060
#	311852
#
# Disc length: 4470 seconds
#
# Revision: 0
# Processed by: cddbd v1.5.1PL0 Copyright (c) Steve Scherf et al.
# Submitted via: CDex 1.51
#
DISCID=a911740c
DTITLE=Blue Note by Bobby Flores - Funkorama
DYEAR=2005
DGENRE=Jazz
TTITLE0=Hold Come, I´m Coming-Reuben Wilson
TTITLE1=Move Your Hand-Loonie Smith
TTITLE2=Everything I Do Gonna Be Funky-Lou Donaldson
TTITLE3=Ain´t it Funky Now-Grant Green
TTITLE4=Sir Duke-Stanley Turrentine
TTITLE5=Inner City Blues-Everette Harp
TTITLE6=Street Lady-Donald Byrd
TTITLE7=Afreaka-Lee Morgan
TTITLE8=Get Out Of My Life-Joe Williams-Thad Jones
TTITLE9=Ummh-Bobby Hutcherson
TTITLE10=Don't Cal Me Niger Whithey-Gene harris
TTITLE11=Jasper Country Man-Bobby Humprey
EXTD=YEAR: 2005
EXTT0=
EXTT1=
EXTT2=
EXTT3=
EXTT4=
EXTT5=
EXTT6=
EXTT7=
EXTT8=
EXTT9=
EXTT10=
EXTT11=
PLAYORDER=
